<?xml version="1.0" encoding="UTF-8" standalone="no"?>
<svg
   viewBox="0 0 253.42867 82.888819"
   version="1.1"
   id="svg32"
   width="67.053001mm"
   height="21.931mm"
   xmlns="http://www.w3.org/2000/svg"
   xmlns:svg="http://www.w3.org/2000/svg">
  <defs
     id="defs4">
    <style
       id="style2">.cls-1{fill:#374f9d;}</style>
  </defs>
  <g
     id="Camada_2"
     data-name="Camada 2">
    <g
       id="Camada_1-2"
       data-name="Camada 1">
      <path
         class="cls-1"
         d="m 253.43,41.78 -0.25,0.62 H 243 c -1.71,0 -3.42,0 -5.18,0 0,0.22 0,0.35 0.06,0.48 a 5.19,5.19 0 0 0 2.88,3.57 7.7,7.7 0 0 0 8.19,-0.71 c 0.23,-0.16 0.44,-0.36 0.72,-0.6 l 2.33,2.79 c -0.2,0.22 -0.36,0.42 -0.55,0.6 a 8.82,8.82 0 0 1 -4.17,2.22 13.22,13.22 0 0 1 -7.3,-0.25 9.27,9.27 0 0 1 -6.73,-8.08 10.1,10.1 0 0 1 1.94,-7.73 9.37,9.37 0 0 1 5.81,-3.56 10.84,10.84 0 0 1 6.88,0.66 9.13,9.13 0 0 1 5.29,6.82 c 0.07,0.33 0.07,0.68 0.13,1 0.06,0.32 0.1,0.46 0.15,0.69 z m -15.65,-2.46 c 0.69,0.13 10.77,0.11 11.21,0 0,-2.58 -2.58,-4.81 -5.55,-4.82 -2.97,-0.01 -5.62,2.23 -5.66,4.82 z"
         id="path6" />
      <path
         class="cls-1"
         d="m 160.56,31.15 h 4.28 c 0.87,2.42 1.74,4.82 2.6,7.24 0.86,2.42 1.7,4.81 2.59,7.21 h 0.16 l 5.4,-14.45 h 3.87 c 1.78,4.81 3.5,9.66 5.37,14.49 0.73,-1.58 1.27,-3.2 1.86,-4.79 0.59,-1.59 1.19,-3.22 1.78,-4.84 l 1.78,-4.86 h 4 L 187,50.82 h -4.43 Q 181.32,47.45 180,44 c -0.84,-2.23 -1.66,-4.48 -2.52,-6.7 h -0.18 q -2.57,6.75 -5.14,13.5 h -4.42 C 165.39,44.31 163,37.78 160.56,31.15 Z"
         id="path8" />
      <path
         class="cls-1"
         d="m 208.86,39.34 a 3.82,3.82 0 0 0 -3.1,-4.5 9.82,9.82 0 0 0 -7.22,1.33 l -0.61,0.39 -1.75,-3.25 a 6.72,6.72 0 0 1 1.82,-1.09 15.49,15.49 0 0 1 6.84,-1.34 12.26,12.26 0 0 1 3.41,0.47 6.78,6.78 0 0 1 5.13,5.82 15.4,15.4 0 0 1 0.18,2.35 c 0,3.5 0,7 0,10.5 0,0.26 0,0.51 0,0.8 h -4.14 c -0.21,-0.69 0,-1.44 -0.17,-2.19 a 0.83,0.83 0 0 0 -0.21,0.14 6,6 0 0 1 -3.83,2.15 10.86,10.86 0 0 1 -5.16,-0.21 6.24,6.24 0 0 1 -3.53,-2.51 c -1.4,-2.09 -1.37,-6.26 2.19,-7.89 a 10.47,10.47 0 0 1 4.11,-0.92 c 1.8,0 3.6,0 5.4,0 z m 0.07,3.06 c -0.21,0 -0.32,0 -0.44,0 -1.68,0 -3.35,0 -5,0 a 6.34,6.34 0 0 0 -1.82,0.37 2.15,2.15 0 0 0 -1.56,1.89 2.42,2.42 0 0 0 1,2.44 4.48,4.48 0 0 0 1.19,0.56 5.73,5.73 0 0 0 2.76,0.11 4.86,4.86 0 0 0 3.69,-2.54 1.44,1.44 0 0 0 0.19,-0.51 c 0,-0.72 -0.01,-1.52 -0.01,-2.32 z"
         id="path10" />
      <path
         class="cls-1"
         d="m 119.41,51.11 a 10.92,10.92 0 0 1 -6.53,-1.83 9.38,9.38 0 0 1 -4.09,-6.6 10.55,10.55 0 0 1 0.64,-5.77 9.29,9.29 0 0 1 5.82,-5.39 11.63,11.63 0 0 1 8.75,0.35 9.27,9.27 0 0 1 5.62,7.64 10.35,10.35 0 0 1 -0.82,5.86 9.53,9.53 0 0 1 -6.44,5.35 10.12,10.12 0 0 1 -2.95,0.39 z m -6.18,-10.33 c 0,3.67 2.13,6.13 5.36,6.44 a 5.8,5.8 0 0 0 5.69,-2.82 7,7 0 0 0 0.64,-5.23 5.43,5.43 0 0 0 -4,-4.21 5.82,5.82 0 0 0 -5.92,1.45 6.21,6.21 0 0 0 -1.77,4.37 z"
         id="path12" />
      <path
         class="cls-1"
         d="m 103.82,35.93 c -0.82,-0.33 -1.54,-0.67 -2.29,-0.9 a 10.56,10.56 0 0 0 -5.32,-0.31 4.35,4.35 0 0 0 -1.4,0.55 1.72,1.72 0 0 0 0.1,3.09 9.12,9.12 0 0 0 2.67,0.78 c 1.29,0.24 2.58,0.45 3.86,0.74 a 10.32,10.32 0 0 1 2,0.7 4.65,4.65 0 0 1 2.68,5.2 5.38,5.38 0 0 1 -3.26,4.22 10.92,10.92 0 0 1 -4.15,1.05 17.49,17.49 0 0 1 -8,-1.18 c -0.61,-0.25 -1.18,-0.58 -1.84,-0.9 l 1.76,-3.49 0.7,0.39 a 13.3,13.3 0 0 0 7.45,1.48 7.6,7.6 0 0 0 1.86,-0.48 1.66,1.66 0 0 0 0.92,-0.85 1.57,1.57 0 0 0 -0.64,-2.19 7.15,7.15 0 0 0 -2.48,-0.76 C 96.92,42.78 95.38,42.54 93.86,42.19 A 6.29,6.29 0 0 1 90.97,40.74 4.3,4.3 0 0 1 89.52,38 a 5.45,5.45 0 0 1 3,-5.9 9.29,9.29 0 0 1 3.34,-1.1 17.31,17.31 0 0 1 8.52,1 c 0.37,0.14 0.72,0.34 1.15,0.55 z"
         id="path14" />
      <path
         class="cls-1"
         d="m 146.15,24.09 -1.28,3.42 -0.65,-0.31 a 4.29,4.29 0 0 0 -2.66,-0.38 2.42,2.42 0 0 0 -2,1.7 7.88,7.88 0 0 0 -0.23,2.72 c 0.94,0 1.82,0 2.7,0 h 2.75 c 0,1.19 0,2.33 0,3.55 -0.24,0 -0.45,0 -0.66,0 h -3.88 c -0.78,0 -0.78,0 -0.78,0.77 v 15.19 a 25.42,25.42 0 0 1 -4.54,0 V 34.9 c -1.08,-0.14 -2.13,0 -3.15,-0.09 a 13.13,13.13 0 0 1 0,-3.55 h 3.12 c 0,-0.31 0,-0.56 0,-0.81 a 17.89,17.89 0 0 1 0.27,-2.65 5.64,5.64 0 0 1 4.25,-4.37 9.44,9.44 0 0 1 5.32,0.06 14.35,14.35 0 0 1 1.42,0.6 z"
         id="path16" />
      <path
         class="cls-1"
         d="m 153.27,34.83 c 0,0.3 -0.07,0.51 -0.07,0.73 q 0,4.36 0,8.73 a 7,7 0 0 0 0.06,0.79 2.49,2.49 0 0 0 2.52,2.31 5.09,5.09 0 0 0 2.79,-0.72 c 0.5,1 0.83,2.07 1.3,3.17 a 11.5,11.5 0 0 1 -1.11,0.63 8.74,8.74 0 0 1 -6.79,0 5.13,5.13 0 0 1 -3.11,-4 10.56,10.56 0 0 1 -0.18,-1.86 c 0,-3 0,-5.91 0,-8.86 0,-0.28 0,-0.55 -0.06,-0.91 h -3.19 c 0,-1.22 0,-2.35 0,-3.57 h 3.17 c 0,-0.29 0.08,-0.53 0.08,-0.76 0,-1 0,-2 0,-3 0,-0.22 0,-0.44 0,-0.63 a 20.39,20.39 0 0 1 4.43,0 6.19,6.19 0 0 1 0.05,0.63 c 0,1 0,2 0,3 0,0.24 0,0.47 0.06,0.78 h 5.2 v 3.58 z"
         id="path18" />
      <path
         class="cls-1"
         d="m 224.08,50.83 h -4.39 c -0.13,-0.47 -0.18,-18.53 -0.06,-19.59 a 20,20 0 0 1 4.27,0 v 2.55 l 0.13,0.07 a 6.84,6.84 0 0 1 3,-2.3 10.38,10.38 0 0 1 3.87,-0.63 c 0.07,1.42 0,2.8 0,4.23 -0.19,0 -0.32,0 -0.45,0 a 6.4,6.4 0 0 0 -3.32,0.51 5,5 0 0 0 -2.91,3.92 9.87,9.87 0 0 0 -0.15,1.8 c 0,2.92 0,5.83 0,8.74 0.05,0.2 0.03,0.43 0.01,0.7 z"
         id="path20" />
      <path
         class="cls-1"
         d="m 24.46,35.53 a 6.12,6.12 0 0 0 -3.55,-0.79 6.46,6.46 0 1 0 6.93,6.54 1.85,1.85 0 0 1 3.1,-1.43 1.84,1.84 0 0 1 0.58,1.47 10.14,10.14 0 0 1 -10.71,10 10.14,10.14 0 0 1 -1.11,-20.14 9.87,9.87 0 0 1 8.84,2.82 1.83,1.83 0 0 1 0,2.71 c -1.74,1.74 -3.51,3.46 -5.27,5.19 -0.43,0.43 -0.85,0.87 -1.3,1.28 a 1.85,1.85 0 0 1 -3.09,-1 1.8,1.8 0 0 1 0.56,-1.65 l 2.94,-2.9 z"
         id="path22" />
      <path
         class="cls-1"
         d="M 71.73,41.3 A 10.13,10.13 0 1 1 51.48,41.22 10.13,10.13 0 0 1 71.73,41.3 Z M 68,41.3 A 6.43,6.43 0 1 0 61.55,47.71 6.35,6.35 0 0 0 68,41.3 Z"
         id="path24" />
      <path
         class="cls-1"
         d="m 42,38.64 c 0.17,-0.17 0.33,-0.3 0.46,-0.45 2,-2.29 4.23,-4.4 6.37,-6.58 a 2,2 0 0 1 2,-0.58 1.84,1.84 0 0 1 1.09,2.64 2.76,2.76 0 0 1 -0.45,0.57 C 50,35.7 48.51,37.17 47,38.61 c -0.63,0.62 -1.32,1.19 -2,1.79 -0.22,0.2 -0.43,0.42 -0.68,0.66 l 0.53,0.56 6.52,6.52 a 1.89,1.89 0 0 1 0.65,1.44 1.75,1.75 0 0 1 -1,1.65 A 1.79,1.79 0 0 1 49.09,51 4.37,4.37 0 0 1 48.65,50.58 L 42.39,44.31 41.87,43.82 C 41.68,44 41.51,44.13 41.36,44.29 L 35,50.69 a 2.18,2.18 0 0 1 -1.12,0.68 1.86,1.86 0 0 1 -1.91,-0.77 1.79,1.79 0 0 1 0,-2.05 3.66,3.66 0 0 1 0.52,-0.59 l 6.22,-6.23 c 0.17,-0.16 0.33,-0.34 0.53,-0.55 -0.2,-0.21 -0.35,-0.39 -0.52,-0.56 l -6.43,-6.44 a 1.81,1.81 0 0 1 -0.53,-2 1.84,1.84 0 0 1 2.93,-0.82 c 0.14,0.12 0.26,0.25 0.39,0.38 l 6.35,6.35 z"
         id="path26" />
      <path
         class="cls-1"
         d="M 41.45,82.89 A 41.45,41.45 0 1 1 82.89,41.45 41.49,41.49 0 0 1 41.45,82.89 Z m 0,-78.84 a 37.4,37.4 0 1 0 37.4,37.4 37.43,37.43 0 0 0 -37.4,-37.4 z"
         id="path28" />
    </g>
  </g>
</svg>
