<svg xmlns="http://www.w3.org/2000/svg" viewBox="0 0 82.89 82.89"><defs><style>.cls-1{fill:#374f9d;}</style></defs><g id="Camada_2" data-name="Camada 2"><g id="Camada_1-2" data-name="Camada 1"><path class="cls-1" d="M24.46,35.53a6.12,6.12,0,0,0-3.55-.79,6.46,6.46,0,1,0,6.93,6.54,1.85,1.85,0,0,1,3.1-1.43,1.84,1.84,0,0,1,.58,1.47,10.14,10.14,0,0,1-10.71,10A10.14,10.14,0,0,1,19.7,31.18,9.87,9.87,0,0,1,28.54,34a1.83,1.83,0,0,1,0,2.71c-1.74,1.74-3.51,3.46-5.27,5.19-.43.43-.85.87-1.3,1.28a1.85,1.85,0,0,1-3.09-1,1.8,1.8,0,0,1,.56-1.65l2.94-2.9Z"/><path class="cls-1" d="M71.73,41.3a10.13,10.13,0,1,1-20.25-.08,10.13,10.13,0,0,1,20.25.08ZM68,41.3a6.43,6.43,0,1,0-6.45,6.41A6.35,6.35,0,0,0,68,41.3Z"/><path class="cls-1" d="M42,38.64c.17-.17.33-.3.46-.45,2-2.29,4.23-4.4,6.37-6.58a2,2,0,0,1,2-.58,1.84,1.84,0,0,1,1.09,2.64,2.76,2.76,0,0,1-.45.57C50,35.7,48.51,37.17,47,38.61c-.63.62-1.32,1.19-2,1.79-.22.2-.43.42-.68.66l.53.56,6.52,6.52a1.89,1.89,0,0,1,.65,1.44,1.75,1.75,0,0,1-1,1.65A1.79,1.79,0,0,1,49.09,51a4.37,4.37,0,0,1-.44-.42l-6.26-6.27-.52-.49c-.19.18-.36.31-.51.47L35,50.69a2.18,2.18,0,0,1-1.12.68,1.86,1.86,0,0,1-1.91-.77,1.79,1.79,0,0,1,0-2.05,3.66,3.66,0,0,1,.52-.59l6.22-6.23c.17-.16.33-.34.53-.55-.2-.21-.35-.39-.52-.56l-6.43-6.44a1.81,1.81,0,0,1-.53-2,1.84,1.84,0,0,1,2.93-.82c.14.12.26.25.39.38l6.35,6.35Z"/><path class="cls-1" d="M41.45,82.89A41.45,41.45,0,1,1,82.89,41.45,41.49,41.49,0,0,1,41.45,82.89Zm0-78.84a37.4,37.4,0,1,0,37.4,37.4A37.43,37.43,0,0,0,41.45,4.05Z"/></g></g></svg>